<svg xmlns="http://www.w3.org/2000/svg" viewBox="24.15 209.41 164.01 169.18" preserveAspectRatio="xMidYMid meet">
  <g transform="translate(0,740) scale(0.1,-0.1)" fill="#1A331C" fill-opacity="0.08" stroke="none">
    <path d="M1335 5209 c-319 -26 -686 -182 -853 -364 -96 -105 -139 -214 -149 -377 -17 -280 102 -437 300 -398 34 6 86 24 117 40 83 42 136 54 172 39 46 -19 61 -60 68 -184 10 -162 40 -210 155 -250 67 -23 201 -24 280 -1 174 51 245 135 301 354 69 271 81 771 24 955 -48 155 -163 206 -415 186z"/>
  </g>
</svg>
